<?xml version="1.0" encoding="utf-8"?>
<!-- Generator: Adobe Illustrator 26.5.0, SVG Export Plug-In . SVG Version: 6.00 Build 0)  -->
<svg version="1.0" id="katman_1" xmlns="http://www.w3.org/2000/svg" xmlns:xlink="http://www.w3.org/1999/xlink" x="0px" y="0px"
	 viewBox="0 0 1190.55 841.89" style="enable-background:new 0 0 1190.55 841.89;" xml:space="preserve">
<style type="text/css">
	.st0{fill:#CC1517;}
</style>
<g>
	<path class="st0" d="M525.89,535.64c0,0,42.74-3.66,42.74-58.85c0-55.19-51.77-60.32-51.77-60.32h-93.28v174.11h46.89v-42l40.54,42
		h69.35C580.35,590.58,525.89,535.64,525.89,535.64z M684.38,417.69h-47.62c-33.95,0-45.42,30.77-45.42,45.42v127.47h47.62v-30.52
		h44.69v30.52h46.15V463.11C729.8,426,696.1,417.69,684.38,417.69L684.38,417.69z M751.53,417.69h49.57v172.89h-49.57
		C751.53,590.58,751.53,417.69,751.53,417.69z M870.7,545.9V417.69h-49.33v172.89h115.99V545.9
		C937.37,545.9,870.7,545.9,870.7,545.9z M953.73,546.38v44.2h79.85c16.36,0,44.45-11.96,45.42-45.42v-17.09
		c0-28.57-23.44-45.42-45.42-45.42h-39.8v-20.51h78.88v-44.45h-75.7c-19.53,0-45.66,16.12-45.66,46.15v15.38
		c0,30.04,25.88,45.42,45.66,45.42c54.94,0.24-13.18,0,37.61,0v21.49C1034.56,546.14,953.73,546.38,953.73,546.38z M128.09,590.34
		h192.91c0,0-36.87-168.25,85.23-236.38c26.62-12.94,111.35-61.29,250.06,41.27c2.77-2.3,5.62-4.5,8.55-6.59
		c0,0-126.98-126.74-268.37-112.57c-71.06,6.35-158.48,71.06-209.77,156.53C135.42,518.06,128.09,590.34,128.09,590.34z
		 M328.34,541.5c0.49,12.94,1.71,23.44,2.93,30.77l29.3,10.5c-2.2-9.53-4.39-20.27-5.86-31.75L328.34,541.5z M653.61,458.96h16.36
		c13.18,0,13.43,9.52,13.43,9.52v42.25h-44.69v-42.25C638.71,468.48,638.71,458.96,653.61,458.96z M151.29,472.64l-28.08-10.26
		c-4.64,10.5-9.77,22.71-12.21,29.3l28.08,10.26C142.26,493.64,147.39,481.67,151.29,472.64z M507.82,499.99h-37.36v-39.8h37.6
		c0,0,10.5,3.91,10.5,19.78C518.57,495.84,507.82,499.99,507.82,499.99z M332,479.47l19.78,15.63c0.98-9.53,2.68-19.05,5.13-28.57
		l-17.58-13.92C336.15,461.65,333.95,470.68,332,479.47z M367.41,400.84l11.72,17.58c4.15-6.11,9.04-11.72,14.41-17.34l-10.99-16.61
		C377.06,389.51,372,394.98,367.41,400.84z M225.04,363.48l-17.34-15.14c-6.35,6.11-12.46,12.21-18.07,18.31l18.8,16.12
		C213.64,376.06,219.18,369.62,225.04,363.48z M428.21,355.18l5.61,16.85c7.08-3.42,14.16-6.35,21.25-8.55l-5.37-16.12
		C442.38,349.5,435.2,352.11,428.21,355.18z M506.85,341.5l-0.98,15.38c8.06,0.25,16.12,1.22,24.18,2.93l0.98-15.14
		C523.05,343.05,514.97,341.99,506.85,341.5z M317.35,290.95l-10.99-16.85c-6.45,3.32-12.8,6.82-19.05,10.5l11.23,17.09
		C304.89,297.79,311,294.13,317.35,290.95z M530.04,289.73l0.98-16.36c-2.2-1.22-8.3-4.15-23.68-8.55l-0.98,16.12
		C514.42,283.63,522.23,286.56,530.04,289.73z M416.49,265.31h2.44l-4.88-14.9c-7.57,0-15.38,0.49-23.44,1.46l4.64,14.41
		C402.33,265.56,409.41,265.31,416.49,265.31z"/>
</g>
</svg>
